<?xml version="1.0" encoding="UTF-8"?>
<svg version="1.1" xmlns="http://www.w3.org/2000/svg" width="655" height="236">
<path d="M0 0 C216.15 0 432.3 0 655 0 C655 77.88 655 155.76 655 236 C438.85 236 222.7 236 0 236 C0 158.12 0 80.24 0 0 Z " fill="#FEFEFE" transform="translate(0,0)"/>
<path d="M0 0 C3.98103298 4.77723958 7.46719209 9.88933687 11 15 C14.37705625 14.46274105 17.696686 13.88935377 21 13 C18.84997866 24.04329143 16.47644731 35.0256929 14 46 C14.62648438 45.07316406 15.25296875 44.14632812 15.8984375 43.19140625 C16.72372415 41.98161105 17.54925782 40.77198433 18.375 39.5625 C18.7875 38.95083984 19.2 38.33917969 19.625 37.70898438 C22.7734375 33.11328125 22.7734375 33.11328125 25 32 C25.99 34.97 25.99 34.97 27 38 C31.95 38 36.9 38 42 38 C41.83723958 41.515625 41.67447917 45.03125 41.51171875 48.546875 C41.6955399 52.69357416 41.6955399 52.69357416 47 56 C39.41 63.59 31.82 71.18 24 79 C24.99 82.465 24.99 82.465 26 86 C23.1038504 85.6902353 20.20810424 85.37728812 17.3125 85.0625 C16.49587891 84.97548828 15.67925781 84.88847656 14.83789062 84.79882812 C14.04189453 84.71181641 13.24589844 84.62480469 12.42578125 84.53515625 C11.69786377 84.456604 10.96994629 84.37805176 10.2199707 84.29711914 C7.79639315 83.97274942 5.39770401 83.4795408 3 83 C3.495 93.395 3.495 93.395 4 104 C1.69 104 -0.62 104 -3 104 C-2.86145912 100.70798357 -2.71292976 97.41649291 -2.5625 94.125 C-2.52318359 93.18785156 -2.48386719 92.25070313 -2.44335938 91.28515625 C-2.40146484 90.38925781 -2.35957031 89.49335937 -2.31640625 88.5703125 C-2.26141968 87.32918701 -2.26141968 87.32918701 -2.20532227 86.06298828 C-2 84 -2 84 -1 82 C-1.75023437 82.20496094 -2.50046875 82.40992187 -3.2734375 82.62109375 C-9.85787383 84.35427661 -16.20377699 85.56395914 -23 86 C-22.46375 85.0925 -21.9275 84.185 -21.375 83.25 C-19.66826632 80.22816065 -19.66826632 80.22816065 -20.70068359 77.98583984 C-22.08809004 75.86536558 -23.43663835 74.5531645 -25.4140625 72.9765625 C-26.09339844 72.43 -26.77273438 71.8834375 -27.47265625 71.3203125 C-28.18292969 70.76085937 -28.89320313 70.20140625 -29.625 69.625 C-30.31207031 69.07328125 -30.99914062 68.5215625 -31.70703125 67.953125 C-36.39829585 64.20363397 -41.17664906 60.57746693 -46 57 C-44.60804085 54.2160817 -42.84424221 54.02101003 -40 53 C-40.31193464 51.27073126 -40.62457362 49.54158956 -40.9375 47.8125 C-41.11152344 46.84957031 -41.28554688 45.88664062 -41.46484375 44.89453125 C-41.9523735 42.25760028 -42.46671105 39.6280095 -43 37 C-41.08302063 37.14166357 -39.16642277 37.28849584 -37.25 37.4375 C-36.18265625 37.51871094 -35.1153125 37.59992188 -34.015625 37.68359375 C-31.56320038 37.94090773 -29.36078709 38.31812218 -27 39 C-26.71125 38.21625 -26.4225 37.4325 -26.125 36.625 C-25 34 -25 34 -23 32 C-22.06100025 33.39482487 -21.12387489 34.79091166 -20.1875 36.1875 C-19.66542969 36.96480469 -19.14335937 37.74210937 -18.60546875 38.54296875 C-17.00459367 40.99296979 -15.48979638 43.48121513 -14 46 C-15.15594557 38.05797399 -16.48465206 30.16853872 -18.03442383 22.29492188 C-18.5813954 19.47247822 -19 16.88366625 -19 14 C-14.545 14.99 -14.545 14.99 -10 16 C-9.04287109 14.39318359 -9.04287109 14.39318359 -8.06640625 12.75390625 C-7.23184812 11.35672466 -6.39720849 9.95959176 -5.5625 8.5625 C-5.14162109 7.85544922 -4.72074219 7.14839844 -4.28710938 6.41992188 C-1.11328125 1.11328125 -1.11328125 1.11328125 0 0 Z " fill="#BE212F" transform="translate(345,27)"/>
<path d="M0 0 C8.25 0 16.5 0 25 0 C29.44128114 8.88256228 29.44128114 8.88256228 30.9375 13.8125 C32.23068373 17.85433306 33.68918709 21.66240567 35.5 25.5 C37.74119793 30.26340233 39.42437695 35.07893677 41.03515625 40.0859375 C43.51967102 47.58977563 46.73450449 54.80896202 50 62 C52.30667576 61.12310224 52.30667576 61.12310224 53.11328125 58.2265625 C53.50902344 57.03804687 53.90476563 55.84953125 54.3125 54.625 C55.79176445 50.29726612 57.34266438 46.07016189 59.3125 41.9375 C62.26286802 35.67378492 64.61422014 29.19714384 67.04248047 22.71875 C69.1788525 17.05435874 71.44883756 11.51070483 74.08984375 6.05859375 C75.18689023 3.73543938 75.18689023 3.73543938 76 0 C84.25 0 92.5 0 101 0 C99 2 99 2 95.5 3.375 C92.04479209 4.64729012 92.04479209 4.64729012 90.625 6.8125 C88.75303576 13.36437484 88.83902536 19.85236753 88.83203125 26.609375 C88.82870285 27.73136292 88.82537445 28.85335083 88.82194519 30.00933838 C88.8168918 32.37959383 88.81453637 34.74985636 88.81469727 37.12011719 C88.81251608 40.72342838 88.79435773 44.32643062 88.77539062 47.9296875 C88.77245522 50.23958229 88.77047141 52.54947853 88.76953125 54.859375 C88.75875298 56.45987701 88.75875298 56.45987701 88.74775696 58.0927124 C88.70870522 67.7291048 88.70870522 67.7291048 91 77 C94.0366385 79.75871491 97.08629639 80.84367848 101 82 C101 82.33 101 82.66 101 83 C88.79 83 76.58 83 64 83 C64 82.34 64 81.68 64 81 C65.093125 80.773125 66.18625 80.54625 67.3125 80.3125 C71.08511695 79.34520385 71.08511695 79.34520385 72.875 76.5625 C74.6362536 72.55075568 75.12280739 69.59666637 75.11352539 65.2434082 C75.11344986 64.06241043 75.11337433 62.88141266 75.11329651 61.66462708 C75.10813522 60.38955795 75.10297394 59.11448883 75.09765625 57.80078125 C75.0962413 56.49545944 75.09482635 55.19013763 75.09336853 53.84526062 C75.0895538 50.37810344 75.07973244 46.91098826 75.06866455 43.44384766 C75.05842798 39.90462818 75.0538661 36.3654019 75.04882812 32.82617188 C75.03810923 25.88409735 75.02104534 18.94205069 75 12 C74.59587891 13.09119141 74.19175781 14.18238281 73.77539062 15.30664062 C73.23578072 16.75654899 72.69606138 18.20641663 72.15625 19.65625 C71.89102539 20.37329102 71.62580078 21.09033203 71.35253906 21.82910156 C69.87358873 25.79414018 68.30856928 29.67013458 66.5 33.5 C64.43987627 37.88352206 62.72308508 42.3303253 61.0625 46.875 C58.83349735 52.96117742 56.30555195 58.81324245 53.5234375 64.671875 C50.77290252 70.68073603 48.40078022 76.84480816 46 83 C45.34 83 44.68 83 44 83 C34.32405831 59.67049769 24.65287432 36.33905699 15 13 C14.93028571 20.44130253 14.87708054 27.88253386 14.84456348 35.32409763 C14.82895163 38.78006646 14.80779644 42.23581075 14.77368164 45.69165039 C14.73465061 49.67070772 14.72025368 53.64967622 14.70703125 57.62890625 C14.69154739 58.86145645 14.67606354 60.09400665 14.66011047 61.36390686 C14.65888196 67.6566872 14.77191473 72.51278557 18 78 C20.35589996 79.88051585 20.35589996 79.88051585 23 81 C24.32 81.66 25.64 82.32 27 83 C18.09 83 9.18 83 0 83 C3 81 3 81 6.0625 79.6875 C9.568968 77.67314604 9.86776126 76.78489281 11 73 C11.30705109 69.98588255 11.30705109 69.98588255 11.2746582 66.72851562 C11.28419022 65.48372437 11.29372223 64.23893311 11.30354309 62.9564209 C11.30328167 61.60636364 11.30234466 60.25630637 11.30078125 58.90625 C11.30467138 57.51289747 11.30900671 56.11954612 11.31376648 54.72619629 C11.32121349 51.81107736 11.32094807 48.89607958 11.31567383 45.98095703 C11.30987488 42.25182404 11.32682726 38.52318704 11.3500185 34.79413605 C11.36477287 31.91844807 11.36562536 29.04287916 11.36250877 26.16716003 C11.36302093 24.79248572 11.36823879 23.41780455 11.37832069 22.04316711 C11.39070218 20.11931167 11.38194128 18.19535558 11.37231445 16.27148438 C11.37294388 15.17848022 11.3735733 14.08547607 11.3742218 12.95935059 C10.94865373 9.59395305 9.99086481 7.72151317 8 5 C6.0062203 3.58544106 6.0062203 3.58544106 3.8125 2.6875 C3.09707031 2.36136719 2.38164063 2.03523438 1.64453125 1.69921875 C1.10183594 1.46847656 0.55914062 1.23773438 0 1 C0 0.67 0 0.34 0 0 Z " fill="#355377" transform="translate(42,103)"/>
<path d="M0 0 C0.00808685 0.92628204 0.01617371 1.85256409 0.02450562 2.80691528 C0.10252436 11.54655468 0.18983712 20.28604156 0.28752708 29.02548409 C0.33742143 33.51826021 0.383752 38.0110136 0.421875 42.50390625 C0.45881458 46.8417526 0.50519793 51.17940556 0.55806351 55.51708603 C0.57656143 57.16999791 0.5916863 58.82295117 0.60334396 60.47592545 C0.62028549 62.79551138 0.64933879 65.11465885 0.68115234 67.43408203 C0.69447601 68.75312531 0.70779968 70.07216858 0.7215271 71.43118286 C0.99959316 74.99478613 1.53460769 77.74219872 3 81 C6.01779872 82.45160938 6.01779872 82.45160938 9 83 C9 83.66 9 84.32 9 85 C7.10507994 85.33848652 5.20901534 85.67056911 3.3125 86 C2.25675781 86.185625 1.20101562 86.37125 0.11328125 86.5625 C-2.64904062 86.95068074 -5.21742043 87.08259976 -8 87 C-8 85.02 -8 83.04 -8 81 C-8.57105469 81.3609375 -9.14210938 81.721875 -9.73046875 82.09375 C-16.82581463 86.15467928 -22.89622478 87.09987218 -31 86 C-37.26947543 84.26132003 -41.45342824 80.34747892 -45 75 C-49.14813277 67.25681884 -49.54319001 57.65836337 -47.23828125 49.20703125 C-44.40036293 42.51044139 -40.51309453 37.43417712 -34 34 C-26.48795555 31.75674017 -20.19537336 31.23653198 -13.10253906 35.00927734 C-11.40169271 36.0061849 -9.70084635 37.00309245 -8 38 C-8.11066173 34.145283 -8.24110396 30.29147438 -8.375 26.4375 C-8.4059375 25.35146484 -8.436875 24.26542969 -8.46875 23.14648438 C-8.73956179 14.87660142 -8.73956179 14.87660142 -11 7 C-12.64119399 5.56616701 -12.64119399 5.56616701 -14.625 5.0625 C-15.73875 4.711875 -16.8525 4.36125 -18 4 C-18 3.34 -18 2.68 -18 2 C-15.93827387 1.66191314 -13.8755797 1.32972639 -11.8125 1 C-10.66394531 0.814375 -9.51539063 0.62875 -8.33203125 0.4375 C-5.48803451 0.06407956 -2.8579044 -0.03409878 0 0 Z " fill="#365477" transform="translate(424,101)"/>
<path d="M0 0 C0.78584473 -0.00128906 1.57168945 -0.00257812 2.38134766 -0.00390625 C8.34497643 0.10339273 13.38188795 1.22397967 18.9296875 3.5 C21.51524205 4.60480452 21.51524205 4.60480452 25.3125 4.375 C25.6425 3.385 25.9725 2.395 26.3125 1.375 C26.6425 1.375 26.9725 1.375 27.3125 1.375 C27.6425 10.615 27.9725 19.855 28.3125 29.375 C27.6525 29.375 26.9925 29.375 26.3125 29.375 C26.02117187 28.529375 25.72984375 27.68375 25.4296875 26.8125 C21.97601255 17.25516051 18.56703511 9.40463865 9.3125 4.375 C3.8491787 2.68067884 -2.5268115 2.20071643 -7.9375 4.2109375 C-17.83606255 9.97221023 -22.46884303 18.65501025 -25.6875 29.375 C-28.76012307 43.59074346 -27.63929696 59.93611762 -19.6875 72.375 C-17.39567728 75.16697732 -17.39567728 75.16697732 -14.6875 77.375 C-13.8625 78.096875 -13.0375 78.81875 -12.1875 79.5625 C-4.39547248 83.59765711 3.08240197 84.12970889 11.4375 81.5625 C13.40478341 80.85783736 15.36512366 80.13294385 17.3125 79.375 C18.3025 79.045 19.2925 78.715 20.3125 78.375 C21.44142893 76.56634065 21.44142893 76.56634065 22.3125 74.375 C22.65410156 73.6428125 22.99570312 72.910625 23.34765625 72.15625 C23.85619141 71.02703125 23.85619141 71.02703125 24.375 69.875 C24.88740234 68.74578125 24.88740234 68.74578125 25.41015625 67.59375 C26.24944651 65.53004062 26.83363458 63.54717303 27.3125 61.375 C27.9725 61.705 28.6325 62.035 29.3125 62.375 C26.79434625 73.09623037 23.62297583 79.16801612 14.3125 85.375 C3.58979467 88.84915653 -10.41248904 89.3621826 -20.6875 84.375 C-31.26628556 77.76544473 -38.12406172 69.21585029 -41.26953125 57.140625 C-43.5352938 42.14847652 -41.55236046 28.43337571 -33.3125 15.55859375 C-25.41704835 4.9490806 -12.92898275 -0.02215289 0 0 Z " fill="#365477" transform="translate(243.6875,100.625)"/>
<path d="M0 0 C2.88634639 2.38123577 3.81558756 3.44676267 5 7 C5.11810919 9.69420583 5.18513212 12.36735018 5.2109375 15.0625 C5.2389949 16.67969782 5.26765928 18.2968852 5.296875 19.9140625 C5.33820744 22.46191234 5.37509861 25.00956487 5.40136719 27.55761719 C5.42892636 30.0179857 5.47478165 32.4774705 5.5234375 34.9375 C5.52669037 35.70006104 5.52994324 36.46262207 5.53329468 37.24829102 C5.61526421 41.38366122 5.61526421 41.38366122 7.40478516 45.015625 C8.97386441 46.20497639 8.97386441 46.20497639 11 45.8125 C13.25737382 44.97340108 13.25737382 44.97340108 16 43 C15.69611836 45.93752254 15.19330344 46.84080893 12.875 48.75 C9.14480366 50.37182449 7.0447647 50.616998 3 50 C0.10668849 48.24878514 -2.45470975 46.22134422 -5 44 C-6.11375 44.928125 -6.11375 44.928125 -7.25 45.875 C-12.73020071 50.10970055 -17.14426353 50.87727434 -24 50 C-28.3723549 47.85357123 -31.26023287 45.60526593 -33 41 C-33.2878624 36.21101636 -32.74276344 32.97620337 -29.8125 29.125 C-24.68185825 25.24851512 -19.49787585 23.43633026 -13.3671875 21.74609375 C-8.75525304 20.33490241 -8.75525304 20.33490241 -5.75 16.8125 C-4.01798926 10.31745972 -5.091522 5.816956 -8 0 C-9.99074584 -1.99074584 -12.98128721 -1.62467268 -15.6484375 -1.62890625 C-18.86491229 -0.76868625 -19.58670598 0.64525377 -21.3125 3.4375 C-21.74175781 4.26121094 -22.17101562 5.08492187 -22.61328125 5.93359375 C-24 8 -24 8 -26.0546875 8.85546875 C-28 9 -28 9 -29.8125 7.875 C-31 6 -31 6 -31.0625 3.5625 C-29.55475646 -0.07382265 -27.39647565 -1.13526827 -24 -3 C-15.68243041 -5.61656877 -7.37856039 -4.49463242 0 0 Z " fill="#395679" transform="translate(550,138)"/>
<path d="M0 0 C5.10699046 3.99677515 6.81126731 7.93055538 7.625 14.1875 C8.49908924 23.81837413 9.46412919 36.13968212 4.0625 44.625 C1.82483442 47.20170582 0.16446036 48.8095977 -3.26953125 49.37109375 C-7.82423819 49.49003387 -10.37366161 49.37116349 -14.375 47 C-21.30665843 39.07810466 -22.46958727 31.14447197 -22.28515625 20.84375 C-21.75436145 13.68892695 -19.21729157 7.06384182 -14 2 C-9.30152933 -1.20350273 -5.33783356 -1.80495815 0 0 Z " fill="#FBFBFC" transform="translate(408,136)"/>
<path d="M0 0 C6.06289593 5.02510293 6.04966828 7.44701452 7 16 C-4.22 16 -15.44 16 -27 16 C-25.74586047 30.68922132 -25.74586047 30.68922132 -18.125 41.875 C-13.72439574 44.8674109 -10.7903026 46.12563527 -5.4375 45.75 C0.11413559 44.8179885 0.11413559 44.8179885 4.1953125 41.3125 C5.19558734 39.57775761 6.10446877 37.79106246 7 36 C8 39 8 39 6.625 42.4375 C3.75889227 47.00777989 0.16100997 48.75550114 -5 50 C-13.90149769 51.10100205 -21.70812432 50.56273604 -29 45 C-35.08283302 38.828459 -37.28382688 32.39185329 -37.4375 23.75 C-37.3012782 15.57669197 -35.57983117 10.10124137 -30.203125 3.94140625 C-21.24678839 -4.67458957 -10.97693202 -6.09829557 0 0 Z " fill="#375478" transform="translate(359,137)"/>
<path d="M0 0 C5.28 0 10.56 0 16 0 C16 0.66 16 1.32 16 2 C15.37996094 2.26167969 14.75992188 2.52335938 14.12109375 2.79296875 C8.49962031 5.99192877 6.44626162 15.90762878 4.27734375 21.65625 C2.3043083 26.82113792 0.14127827 31.90315454 -2 37 C-3.19269157 39.85202807 -4.37928099 42.70652982 -5.5625 45.5625 C-5.86583252 46.29170654 -6.16916504 47.02091309 -6.48168945 47.7722168 C-8.15576491 51.82998538 -9.67372341 55.89617022 -11.0625 60.0625 C-12.95781934 65.46003985 -15.95181288 69.95181288 -20 74 C-21.9609375 74.16796875 -21.9609375 74.16796875 -24.375 74.1875 C-25.16648438 74.20167969 -25.95796875 74.21585937 -26.7734375 74.23046875 C-29 74 -29 74 -32 72 C-31.67 70.35 -31.34 68.7 -31 67 C-27.10745958 66.92514345 -23.75892143 67.06026964 -20 68 C-16.89866246 67.3331029 -16.89866246 67.3331029 -15.83203125 64.99609375 C-15.49558594 64.15175781 -15.15914062 63.30742187 -14.8125 62.4375 C-14.46832031 61.61121094 -14.12414062 60.78492188 -13.76953125 59.93359375 C-12.04775271 53.36985931 -12.93606479 48.15556127 -15.37890625 41.9296875 C-15.62865707 41.28613312 -15.8784079 40.64257874 -16.13572693 39.97952271 C-16.66490118 38.62413418 -17.20057179 37.27126555 -17.74243164 35.92089844 C-18.55004877 33.90606322 -19.33623387 31.88392101 -20.11914062 29.859375 C-25.75681579 14.29601929 -25.75681579 14.29601929 -35 1 C-27.74 1 -20.48 1 -13 1 C-14.65 2.65 -16.3 4.3 -18 6 C-17.34996589 13.93041613 -13.64606889 21.60067903 -10.77783203 28.98486328 C-9.4929292 32.31367306 -8.24837252 35.65734284 -7 39 C-4.1528087 35.66448229 -2.89741378 32.32151578 -1.5 28.1875 C1.03860338 20.75575777 1.03860338 20.75575777 2.8125 17.25 C4.44117956 12.79256121 4.25498549 8.69362187 4 4 C2.68 3.34 1.36 2.68 0 2 C0 1.34 0 0.68 0 0 Z " fill="#365477" transform="translate(181,134)"/>
<path d="M0 0 C1.010625 0.556875 2.02125 1.11375 3.0625 1.6875 C3.866875 2.120625 4.67125 2.55375 5.5 3 C7.0625 4.6875 7.0625 4.6875 7.4375 7.75 C7.0625 10.6875 7.0625 10.6875 5.0625 12.6875 C2.61328125 12.62890625 2.61328125 12.62890625 0.0625 11.6875 C-1.51953125 9.40234375 -1.51953125 9.40234375 -2.75 6.625 C-3.16894531 5.70589844 -3.58789062 4.78679687 -4.01953125 3.83984375 C-4.32246094 3.12957031 -4.62539063 2.41929687 -4.9375 1.6875 C-11.71307852 1.04304351 -11.71307852 1.04304351 -17.8125 3.5625 C-24.07435088 12.77110423 -25.05900402 21.808911 -23.9375 32.6875 C-22.39461228 38.43396959 -19.35864372 44.57642226 -14.15234375 47.7890625 C-9.90114598 49.51353426 -5.42597958 49.35443604 -0.9375 48.6875 C2.12781289 46.54058458 2.12781289 46.54058458 4.0625 43.6875 C5.0625 42.6875 6.0625 41.6875 7.0625 40.6875 C5.81999216 45.65753138 4.3622891 47.88763733 0.0625 50.6875 C-6.15186975 53.61067223 -12.83263152 53.68683624 -19.47265625 52.0703125 C-26.10207699 49.50041698 -31.04019751 44.71030287 -34.07421875 38.27734375 C-37.24168172 28.77495484 -35.97864541 19.728501 -31.9375 10.6875 C-29.62723302 7.38847678 -27.45515225 5.05940758 -24 3 C-23.35160156 2.60425781 -22.70320313 2.20851562 -22.03515625 1.80078125 C-15.13023673 -1.86384084 -7.43474636 -3.05097583 0 0 Z " fill="#385679" transform="translate(502.9375,135.3125)"/>
<path d="M0 0 C-0.33 1.65 -0.66 3.3 -1 5 C-2.625 5.8125 -2.625 5.8125 -5 6 C-6.45491137 4.70674545 -7.90903909 3.41252676 -9.3515625 2.10546875 C-11.18071914 0.6740525 -11.18071914 0.6740525 -14.6875 0.8125 C-18.16521808 1.70419038 -18.16521808 1.70419038 -19.875 4.625 C-22.38846579 12.16539736 -22.18293148 19.74887622 -22.1875 27.625 C-22.20586914 29.30335938 -22.20586914 29.30335938 -22.22460938 31.015625 C-22.22654297 32.09585938 -22.22847656 33.17609375 -22.23046875 34.2890625 C-22.23663208 35.75400146 -22.23663208 35.75400146 -22.24291992 37.24853516 C-21.97900076 40.23785065 -21.39049887 42.34318989 -20 45 C-16.98303591 46.84274976 -16.98303591 46.84274976 -14 48 C-14 48.33 -14 48.66 -14 49 C-22.58 49 -31.16 49 -40 49 C-39.01 48.34 -38.02 47.68 -37 47 C-33.9264048 44.64960367 -33.08425077 43.46932001 -32.390625 39.60546875 C-31.81090481 34.0597724 -31.85440872 28.50744071 -31.875 22.9375 C-31.87113281 21.88755859 -31.86726563 20.83761719 -31.86328125 19.75585938 C-31.87143135 13.28060151 -31.93571854 7.19284437 -34 1 C-35.65 0.67 -37.3 0.34 -39 0 C-38.67 -0.66 -38.34 -1.32 -38 -2 C-34.83984375 -2.4140625 -34.83984375 -2.4140625 -30.9375 -2.625 C-29.64714844 -2.69976562 -28.35679687 -2.77453125 -27.02734375 -2.8515625 C-26.02832031 -2.90054688 -25.02929688 -2.94953125 -24 -3 C-24 -0.36 -24 2.28 -24 5 C-23.34 5 -22.68 5 -22 5 C-21.79375 4.4225 -21.5875 3.845 -21.375 3.25 C-19.05223787 -0.55088348 -15.62924634 -2.4834097 -11.4375 -3.8125 C-6.60420676 -4.18429179 -3.67711851 -3.13236021 0 0 Z " fill="#355377" transform="translate(318,137)"/>
<path d="M0 0 C0.67924528 20.50314465 0.67924528 20.50314465 -4.6875 27.0625 C-8.3729223 28.55659012 -11.02149446 28.44205617 -15 28 C-17.47249633 25.9262934 -17.92168562 24.25172478 -18.875 21.1875 C-19.06450772 16.35505305 -17.75662295 12.90030451 -14.51953125 9.3984375 C-3.98846154 0 -3.98846154 0 0 0 Z " fill="#FBFBFC" transform="translate(546,157)"/>
<path d="M0 0 C5.07012511 4.11091225 5.40367983 8.51325881 6.3125 14.875 C-2.2675 14.875 -10.8475 14.875 -19.6875 14.875 C-16.24776059 3.40920195 -16.24776059 3.40920195 -11.6875 -0.125 C-7.41776338 -1.54824554 -4.19737125 -1.75703913 0 0 Z " fill="#F8F9FA" transform="translate(351.6875,136.125)"/>
<path d="M0 0 C4.36689189 1.42398649 4.36689189 1.42398649 5.875 3.9375 C6.375 7.375 6.375 7.375 5.875 10.9375 C3.75 13.4375 3.75 13.4375 0.875 14.9375 C-2.64897438 14.9375 -4.36775308 14.61902223 -7 12.25 C-8.49794243 9.17089611 -8.68883235 7.32049409 -8.125 3.9375 C-5.43583153 0.85286557 -4.12776368 -0.08255527 0 0 Z " fill="#395679" transform="translate(450.125,173.0625)"/>
<path d="M0 0 C5.28 0 10.56 0 16 0 C16 0.66 16 1.32 16 2 C15.37996094 2.26167969 14.75992188 2.52335938 14.12109375 2.79296875 C8.50977189 5.98615191 6.46405273 15.86255479 4.296875 21.6015625 C3.0140948 24.96306482 1.68199246 28.2979389 0.3125 31.625 C-0.08324219 32.58664063 -0.47898438 33.54828125 -0.88671875 34.5390625 C-2 37 -2 37 -4 40 C-5.38445141 35.84664576 -3.79514885 33.13413564 -2.25 29.25 C-1.98445312 28.5590625 -1.71890625 27.868125 -1.4453125 27.15625 C-0.15709525 23.82939767 1.19881211 20.56428327 2.69140625 17.32421875 C3.96815066 14.08090682 4.32891528 12.0036052 4.1875 8.5625 C4.14689453 7.26505859 4.14689453 7.26505859 4.10546875 5.94140625 C4.07066406 5.30074219 4.03585938 4.66007813 4 4 C2.68 3.34 1.36 2.68 0 2 C0 1.34 0 0.68 0 0 Z " fill="#4E6887" transform="translate(181,134)"/>
<path d="M0 0 C1.10759123 2.75259358 1.05753226 3.84687911 -0.00390625 6.671875 C-0.77541016 8.19554688 -0.77541016 8.19554688 -1.5625 9.75 C-4.01551552 14.80366624 -6.14609603 19.84594419 -8.0625 25.125 C-10.12577715 30.78300338 -12.40535521 36.25844214 -14.96484375 41.71484375 C-16.18880118 44.41678751 -17.15496365 47.15760501 -18 50 C-18.66 49.34 -19.32 48.68 -20 48 C-19.53931973 44.57576832 -18.04037375 41.3668772 -16.7890625 38.1640625 C-16.34079102 37.01196289 -15.89251953 35.85986328 -15.43066406 34.67285156 C-14.95854492 33.46081055 -14.48642578 32.24876953 -14 31 C-13.06962399 28.57057606 -12.13994032 26.14088687 -11.2109375 23.7109375 C-10.26614008 21.26542594 -9.32082526 18.82011421 -8.375 16.375 C-8.13620117 15.74803223 -7.89740234 15.12106445 -7.65136719 14.47509766 C-6.94956231 12.63416564 -6.23665689 10.79747742 -5.5234375 8.9609375 C-5.11013184 7.88634277 -4.69682617 6.81174805 -4.27099609 5.70458984 C-3.0920196 3.1958112 -2.09925112 1.76324876 0 0 Z " fill="#425E80" transform="translate(115,115)"/>
<path d="M0 0 C0.66 0.66 1.32 1.32 2 2 C1.82947169 8.82113251 -2.05337249 15.08005873 -5.75 20.625 C-9.27319209 22.77806184 -12.97811511 22.63698361 -17 22 C-17.99 21.34 -18.98 20.68 -20 20 C-19.67 18.35 -19.34 16.7 -19 15 C-15.10745958 14.92514345 -11.75892143 15.06026964 -8 16 C-4.87078576 15.33813354 -4.87078576 15.33813354 -3.8671875 12.890625 C-3.53976563 12.01921875 -3.21234375 11.1478125 -2.875 10.25 C-2.54242188 9.38890625 -2.20984375 8.5278125 -1.8671875 7.640625 C-1.03382723 5.10300543 -0.46319234 2.62790754 0 0 Z " fill="#3B587B" transform="translate(169,186)"/>
<path d="M0 0 C0.98484375 0.00902344 1.9696875 0.01804688 2.984375 0.02734375 C4.10585938 0.04474609 4.10585938 0.04474609 5.25 0.0625 C2.25 2.0625 2.25 2.0625 -1.125 2.6875 C-5.5935513 4.38246773 -6.45406448 6.14740058 -8.51171875 10.28515625 C-9.75 12.0625 -9.75 12.0625 -11.78125 12.87890625 C-13.75 13.0625 -13.75 13.0625 -15.5625 11.9375 C-16.75 10.0625 -16.75 10.0625 -16.8125 7.625 C-15.30475646 3.98867735 -13.14647565 2.92723173 -9.75 1.0625 C-6.47004756 -0.01688987 -3.43828282 -0.04093194 0 0 Z " fill="#445F81" transform="translate(535.75,133.9375)"/>
<path d="M0 0 C2.3125 1.5625 2.3125 1.5625 4 3 C3.67 4.65 3.34 6.3 3 8 C1.375 8.8125 1.375 8.8125 -1 9 C-2.45881193 7.70327828 -3.91609855 6.4045526 -5.3515625 5.08203125 C-7.18623463 3.6456271 -7.18623463 3.6456271 -10.6875 4.1875 C-12.3271875 4.5896875 -12.3271875 4.5896875 -14 5 C-14.99 5 -15.98 5 -17 5 C-12.95489878 0.41383428 -5.88956823 -2.35582729 0 0 Z " fill="#3D5A7C" transform="translate(314,134)"/>
<path d="M0 0 C0.66 0.33 1.32 0.66 2 1 C-0.07430544 9.83151256 -2.17780559 16.65801357 -10 22 C-12.8125 23.25 -12.8125 23.25 -15 24 C-15.33 23.34 -15.66 22.68 -16 22 C-14.48065294 18.96130589 -12.01995228 18.35589694 -9 17 C-8.34 17 -7.68 17 -7 17 C-5.57824908 14.19475155 -4.22890116 11.36759801 -2.9375 8.5 C-2.59589844 7.7471875 -2.25429688 6.994375 -1.90234375 6.21875 C-1.06305349 4.15504062 -0.47886542 2.17217303 0 0 Z " fill="#4F6888" transform="translate(271,162)"/>
<path d="M0 0 C0.99 0 1.98 0 3 0 C1.34616332 6.61534672 -1.30939513 12.74588409 -4 19 C-4.66 18.34 -5.32 17.68 -6 17 C-5.52985926 13.27306611 -3.79381226 9.72772375 -2.4375 6.25 C-1.98246094 5.07953125 -1.52742188 3.9090625 -1.05859375 2.703125 C-0.53458984 1.36507812 -0.53458984 1.36507812 0 0 Z " fill="#4E6887" transform="translate(101,146)"/>
<path d="M0 0 C0.33 0.66 0.66 1.32 1 2 C-1.48463843 6.55517045 -3.81201332 9.14300611 -8.5625 11.3203125 C-13.29463756 12.63985086 -18.13700325 12.29177981 -23 12 C-23 11.67 -23 11.34 -23 11 C-19.7 11 -16.4 11 -13 11 C-13 10.34 -13 9.68 -13 9 C-11.9275 8.7525 -10.855 8.505 -9.75 8.25 C-4.6975666 6.56585553 -2.89305799 4.33958698 0 0 Z " fill="#5D7491" transform="translate(509,176)"/>
<path d="M0 0 C1.16161779 2.86578759 0.9946154 4.01630163 0.00390625 7.015625 C-0.70958984 8.61664063 -0.70958984 8.61664063 -1.4375 10.25 C-1.91058594 11.32765625 -2.38367188 12.4053125 -2.87109375 13.515625 C-3.24363281 14.33546875 -3.61617188 15.1553125 -4 16 C-4.66 15.34 -5.32 14.68 -6 14 C-5.63049211 8.58055089 -3.86827295 3.86827295 0 0 Z " fill="#4C6786" transform="translate(115,115)"/>
<path d="M0 0 C1 3 1 3 -0.6875 6.5625 C-2.40234675 9.35947418 -3.69272613 11.14650997 -7 12 C-7.99 11.67 -8.98 11.34 -10 11 C-9.67 10.34 -9.34 9.68 -9 9 C-8.236875 8.773125 -7.47375 8.54625 -6.6875 8.3125 C-2.77259828 6.40057125 -1.92607054 3.85214108 0 0 Z " fill="#4B6585" transform="translate(366,173)"/>
<path d="M0 0 C0.66 0.66 1.32 1.32 2 2 C1.64626043 5.9795702 0.60725491 9.35688886 -1 13 C-1.66 12.34 -2.32 11.68 -3 11 C-2.01 7.37 -1.02 3.74 0 0 Z " fill="#677D98" transform="translate(169,186)"/>
<path d="M0 0 C2.64 0 5.28 0 8 0 C7.01 0.495 7.01 0.495 6 1 C6 1.66 6 2.32 6 3 C3.69 2.67 1.38 2.34 -1 2 C-0.67 1.34 -0.34 0.68 0 0 Z " fill="#4F6888" transform="translate(245,101)"/>
</svg>
