<svg id="svg" version="1.1" xmlns="http://www.w3.org/2000/svg" xmlns:xlink="http://www.w3.org/1999/xlink" width="400" height="400" viewBox="0, 0, 400,400"><g id="svgg"><path id="path0" d="M183.043 18.530 C 15.426 33.845,-47.068 249.638,86.555 351.706 C 210.406 446.311,387.691 358.827,387.173 203.361 C 386.805 92.804,293.618 8.427,183.043 18.530 M228.875 53.974 C 324.805 69.984,381.578 177.551,341.153 266.707 C 301.722 353.670,189.211 384.315,112.247 329.055 L 104.327 323.368 132.496 295.235 L 160.665 267.102 169.828 271.268 C 210.654 289.831,260.749 267.292,272.199 225.210 C 273.285 221.219,274.032 220.984,287.091 220.520 L 300.840 220.032 300.840 203.293 L 300.840 186.555 286.555 186.555 C 274.566 186.555,272.269 186.121,272.269 183.859 C 272.269 171.392,250.572 145.898,232.940 137.647 C 168.299 107.397,102.096 175.873,135.381 238.555 L 141.202 249.517 113.897 276.860 C 82.153 308.647,86.018 306.907,76.346 293.768 C -4.942 183.346,91.891 31.114,228.875 53.974 M220.038 159.046 C 245.400 169.495,257.053 200.748,244.851 225.596 C 227.067 261.812,174.618 261.821,156.837 225.612 C 137.068 185.353,178.352 141.870,220.038 159.046 " stroke="none" fill="#000000" fill-rule="evenodd"></path></g></svg>